<svg xmlns="http://www.w3.org/2000/svg" viewBox="0 0 397.6 422.8" width="397.6" height="422.8" role="img" aria-label="Планировка">
<g transform="translate(30.8,30.8)">
<rect x="0.0" y="0.0" width="56.0" height="16.8" fill="#D9DDDA"></rect>
<rect x="274.4" y="0.0" width="61.6" height="16.8" fill="#D9DDDA"></rect>
<rect x="0.0" y="344.4" width="30.8" height="16.8" fill="#D9DDDA"></rect>
<rect x="84.0" y="344.4" width="252.0" height="16.8" fill="#D9DDDA"></rect>
<rect x="0.0" y="0.0" width="16.8" height="50.4" fill="#D9DDDA"></rect>
<rect x="0.0" y="179.2" width="16.8" height="182.0" fill="#D9DDDA"></rect>
<rect x="319.2" y="0.0" width="16.8" height="361.2" fill="#D9DDDA"></rect>
<line x1="56.0" y1="5.71" x2="274.4" y2="5.71" stroke="#D9DDDA" stroke-width="1" stroke-opacity="1.0"></line>
<line x1="56.0" y1="11.09" x2="274.4" y2="11.09" stroke="#D9DDDA" stroke-width="1" stroke-opacity="1.0"></line>
<line x1="5.71" y1="50.4" x2="5.71" y2="179.2" stroke="#D9DDDA" stroke-width="1" stroke-opacity="1.0"></line>
<line x1="11.09" y1="50.4" x2="11.09" y2="179.2" stroke="#D9DDDA" stroke-width="1" stroke-opacity="1.0"></line>
<line x1="30.8" y1="350.11" x2="84.0" y2="350.11" stroke="#D9DDDA" stroke-width="1" stroke-opacity="1.0"></line>
<line x1="30.8" y1="355.49" x2="84.0" y2="355.49" stroke="#D9DDDA" stroke-width="1" stroke-opacity="1.0"></line>
<rect x="16.8" y="226.8" width="64.4" height="6.72" fill="#D9DDDA"></rect>
<rect x="131.6" y="226.8" width="187.6" height="6.72" fill="#D9DDDA"></rect>
<path d="M81.2,179.76 A50.4,50.4 0 0 1 131.6,230.16" fill="none" stroke="#D9DDDA" stroke-width="1" stroke-opacity="0.55"></path>
<line x1="81.2" y1="230.16" x2="81.2" y2="179.76" stroke="#D9DDDA" stroke-width="1" stroke-opacity="0.55"></line>
<rect x="215.6" y="226.8" width="6.72" height="33.6" fill="#D9DDDA"></rect>
<rect x="215.6" y="305.2" width="6.72" height="39.2" fill="#D9DDDA"></rect>
<path d="M263.76,260.4 A44.8,44.8 0 0 1 218.96,305.2" fill="none" stroke="#D9DDDA" stroke-width="1" stroke-opacity="0.55"></path>
<line x1="218.96" y1="260.4" x2="263.76" y2="260.4" stroke="#D9DDDA" stroke-width="1" stroke-opacity="0.55"></line>
<path d="M84.0,291.2 A53.2,53.2 0 0 1 137.2,344.4" fill="none" stroke="#D9DDDA" stroke-width="1" stroke-opacity="0.5"></path>
<line x1="84.0" y1="344.4" x2="84.0" y2="291.2" stroke="#D9DDDA" stroke-width="1" stroke-opacity="0.5"></line>
<rect x="16.8" y="39.2" width="34.72" height="134.4" rx="0" fill="none" stroke="#D9DDDA" stroke-width="1" stroke-opacity="0.55"></rect>
<line x1="16.8" y1="84.0" x2="51.52" y2="84.0" stroke="#D9DDDA" stroke-width="0.8" stroke-opacity="0.3"></line>
<line x1="16.8" y1="128.8" x2="51.52" y2="128.8" stroke="#D9DDDA" stroke-width="0.8" stroke-opacity="0.3"></line>
<circle cx="34.16" cy="106.4" r="8.96" fill="none" stroke="#D9DDDA" stroke-width="0.9" stroke-opacity="0.4"></circle>
<rect x="212.8" y="42.0" width="89.6" height="112.0" rx="3" fill="none" stroke="#D9DDDA" stroke-width="1" stroke-opacity="0.5"></rect>
<line x1="212.8" y1="71.12" x2="302.4" y2="71.12" stroke="#D9DDDA" stroke-width="0.9" stroke-opacity="0.35"></line>
<rect x="219.97" y="47.6" width="32.26" height="19.04" rx="2" fill="none" stroke="#D9DDDA" stroke-width="0.8" stroke-opacity="0.3"></rect>
<rect x="262.98" y="47.6" width="32.26" height="19.04" rx="2" fill="none" stroke="#D9DDDA" stroke-width="0.8" stroke-opacity="0.3"></rect>
<circle cx="123.2" cy="95.2" r="28.0" fill="none" stroke="#D9DDDA" stroke-width="1" stroke-opacity="0.5"></circle>
<rect x="36.4" y="309.68" width="61.6" height="28.0" rx="0" fill="none" stroke="#D9DDDA" stroke-width="1" stroke-opacity="0.45"></rect>
<line x1="67.2" y1="309.68" x2="67.2" y2="337.68" stroke="#D9DDDA" stroke-width="0.8" stroke-opacity="0.26"></line>
<rect x="226.8" y="243.6" width="41.44" height="89.6" rx="4" fill="none" stroke="#D9DDDA" stroke-width="1" stroke-opacity="0.6"></rect>
<rect x="231.28" y="248.08" width="32.48" height="80.64" rx="3" fill="none" stroke="#D9DDDA" stroke-width="0.8" stroke-opacity="0.35"></rect>
<rect x="282.8" y="310.8" width="21.28" height="34.72" rx="5" fill="none" stroke="#D9DDDA" stroke-width="1" stroke-opacity="0.55"></rect>
<circle cx="293.44" cy="322.0" r="8.4" fill="none" stroke="#D9DDDA" stroke-width="0.9" stroke-opacity="0.45"></circle>
<rect x="277.2" y="244.72" width="30.8" height="23.52" rx="3" fill="none" stroke="#D9DDDA" stroke-width="1" stroke-opacity="0.55"></rect>
<circle cx="292.6" cy="256.48" r="6.72" fill="none" stroke="#D9DDDA" stroke-width="0.9" stroke-opacity="0.4"></circle>
<text x="140.0" y="208.32" text-anchor="middle" stroke="#121416" stroke-width="5.6" paint-order="stroke" stroke-linejoin="round" font-family="Manrope,Inter,sans-serif" font-size="13" letter-spacing="1.7" fill="#D9DDDA" fill-opacity=".46">ГОСТИНАЯ</text>
<text x="105.0" y="325.92" text-anchor="middle" stroke="#121416" stroke-width="5.6" paint-order="stroke" stroke-linejoin="round" font-family="Manrope,Inter,sans-serif" font-size="13" letter-spacing="1.7" fill="#D9DDDA" fill-opacity=".46">ХОЛЛ</text>
<text x="267.4" y="311.92" text-anchor="middle" stroke="#121416" stroke-width="5.6" paint-order="stroke" stroke-linejoin="round" font-family="Manrope,Inter,sans-serif" font-size="13" letter-spacing="1.7" fill="#D9DDDA" fill-opacity=".46">С/У</text>
</g>
</svg>